<svg width="514" height="414" xmlns="http://www.w3.org/2000/svg">
 <style type="text/css">.st0{fill:#009540;}
	.st1{fill:#1D1D1B;}
	.st2{fill:#009EE2;}
	.st3{fill:#BD1622;}
	.st4{fill:#F29100;}</style>

 <g>
  <title>background</title>
  <rect fill="none" id="canvas_background" height="416" width="516" y="-1" x="-1"/>
 </g>
 <g>
  <title>Layer 1</title>
  <rect id="svg_1" height="13.3" width="379.8" class="st0" y="372.2" x="69.5"/>
  <g id="svg_2">
   <path id="svg_3" d="m84,249.3l-13.9,0l0,-35l14.4,0c6.1,0 10.1,3.2 10.1,9.1c0,3.5 -1.9,5.8 -4.5,7c2.8,0.8 5.9,3.3 5.9,8.2c0.1,7.1 -4.3,10.7 -12,10.7zm0.5,-30.2l-9.4,0l0,9.1l9.4,0c3.5,0 4.9,-2.2 4.9,-4.5c0,-2.6 -1.4,-4.6 -4.9,-4.6zm0.1,13.8l-9.5,0l0,11.6l9.4,0c4.7,0 6.4,-2.3 6.4,-5.8c-0.1,-3.6 -2.4,-5.8 -6.3,-5.8z" class="st1"/>
   <path id="svg_4" d="m104.1,249.3l0,-35l22.6,0l0,5.1l-17.3,0l0,8.7l10.1,0l0,5.1l-10.1,0l0,11.1l18.1,0l0,5.1l-23.4,0l0,-0.1z" class="st1"/>
   <path id="svg_5" d="m154,235l7.2,14.3l-6.1,0l-7,-13.9l-7.9,0l0,13.9l-5.2,0l0,-35l15.4,0c6.1,0 11.3,3.2 11.3,10.5c0,5.6 -3,9 -7.7,10.2zm-3.6,-15.7l-10.2,0l0,11.3l10.2,0c3.5,0 6,-1.8 6,-5.6c0,-3.7 -2.4,-5.7 -6,-5.7z" class="st1"/>
   <path id="svg_6" d="m182.4,249.9c-8.7,0 -13.2,-5.6 -13.2,-15.3l0,-20.3l5.3,0l0,20.2c0,6.6 2.8,10.2 8,10.2c5.5,0 8.1,-3.4 8.1,-9.8l0,-20.5l5.3,0l0,20.4c0,9.7 -4.8,15.1 -13.5,15.1z" class="st1"/>
   <path id="svg_7" d="m210.2,219.5l0,9.2l10.1,0l0,5.2l-10.1,0l0,15.6l-5.3,0l0,-35l22.6,0l0,5.2l-17.3,0l0,-0.2z" class="st1"/>
   <path id="svg_8" d="m243.4,249.9c-5.1,0 -9.5,-2.2 -12.5,-5.7l3.8,-3.7c2.3,2.6 5.8,4.2 9.1,4.2c4.9,0 7.2,-1.7 7.2,-5.1c0,-2.7 -2,-4.1 -7.9,-5.8c-7.4,-2.2 -11,-4 -11,-10.3c0,-6 5.1,-9.8 11.6,-9.8c4.8,0 8.3,1.8 11.5,4.8l-3.7,3.8c-2.2,-2.2 -4.7,-3.4 -8.2,-3.4c-4.1,0 -5.9,2 -5.9,4.4c0,2.5 1.6,3.7 7.7,5.5c6.9,2.1 11.2,4.3 11.2,10.6c0,6.2 -4,10.5 -12.9,10.5z" class="st1"/>
   <path id="svg_9" d="m286.1,249.3l-10,-18l-6.5,7.9l0,10.1l-5.1,0l0,-35l5.1,0l0,12c0,1.3 0,5.1 -0.1,6.2c0.6,-0.9 2.9,-3.8 4,-5.3l10.4,-13l6,0l-10.4,12.8l12.5,22.3l-5.9,0z" class="st1"/>
   <path id="svg_10" d="m309.8,249.9c-9.1,0 -14.8,-7.5 -14.8,-18.1s5.8,-18.1 14.8,-18.1c9.1,0 14.9,7.5 14.9,18.1s-5.8,18.1 -14.9,18.1zm0,-30.9c-6.1,0 -9.5,5 -9.5,12.8s3.3,12.8 9.5,12.8c6.2,0 9.5,-5 9.5,-12.8s-3.4,-12.8 -9.5,-12.8z" class="st1"/>
   <path id="svg_11" d="m332.3,249.3l0,-35l5.3,0l0,29.9l17.4,0l0,5.2l-22.7,0l0,-0.1z" class="st1"/>
   <path id="svg_12" d="m362.3,249.3l0,-35l5.3,0l0,29.9l17.4,0l0,5.2l-22.7,0l0,-0.1z" class="st1"/>
   <path id="svg_13" d="m392.2,249.3l0,-35l22.6,0l0,5.1l-17.3,0l0,8.7l10.1,0l0,5.1l-10.1,0l0,11.1l18.1,0l0,5.1l-23.4,0l0,-0.1z" class="st1"/>
   <path id="svg_14" d="m434.7,249.9c-9.1,0 -14.8,-7.5 -14.8,-18.1s5.8,-18.1 14.8,-18.1c5.7,0 9.5,2.3 11.9,6.5l-4.6,2.9c-1.8,-2.9 -3.7,-4.2 -7.3,-4.2c-6.1,0 -9.5,5 -9.5,12.8s3.3,12.8 9.5,12.8c5.7,0 8,-3.8 8,-7.9l0,-0.2l-5.7,0l0,-5l11,0l0,4c0,9.2 -5.5,14.5 -13.3,14.5z" class="st1"/>
  </g>
  <path id="svg_15" d="m95,319.3c-15,0 -24.6,-12.4 -24.6,-30c0,-17.6 9.5,-30 24.6,-30c9.5,0 15.8,3.8 19.8,10.9l-7.6,4.7c-3,-4.7 -6.1,-6.9 -12.1,-6.9c-10.1,0 -15.7,8.2 -15.7,21.2c0,13 5.6,21.2 15.7,21.2c9.5,0 13.2,-6.2 13.2,-13l0,-0.2l-9.5,0l0,-8.4l18.3,0l0,6.7c0,15 -9.2,23.8 -22.1,23.8z" class="st1"/>
  <path id="svg_16" d="m130.1,318.3l0,-58.1l37.4,0l0,8.5l-28.7,0l0,14.4l16.7,0l0,8.5l-16.7,0l0,18.3l30,0l0,8.5l-38.7,0l0,-0.1z" class="st1"/>
  <path id="svg_17" d="m181.9,318.3l0,-58.1l8.7,0l0,49.5l29,0l0,8.5l-37.7,0l0,0.1z" class="st1"/>
  <path id="svg_18" d="m247.9,318.3l-15.9,0l0,-58.1l15.9,0c15.6,0 28.3,8.5 28.3,29c0,20.6 -13.1,29.1 -28.3,29.1zm0,-49.6l-7.1,0l0,41.2l7.1,0c13.8,0 19.4,-8.4 19.4,-20.6c0,-12.2 -5.6,-20.6 -19.4,-20.6z" class="st1"/>
  <path id="svg_19" d="m289.1,318.3l0,-58.1l37.4,0l0,8.5l-28.7,0l0,14.4l16.7,0l0,8.5l-16.7,0l0,18.3l30,0l0,8.5l-38.7,0l0,-0.1z" class="st1"/>
  <path id="svg_20" d="m372.2,294.6l11.9,23.7l-10,0l-11.5,-23l-13.1,0l0,23l-8.5,0l0,-58.1l25.5,0c10.1,0 18.7,5.4 18.7,17.3c-0.2,9.4 -5.1,15.1 -13,17.1zm-5.8,-26.1l-16.9,0l0,18.7l16.9,0c5.8,0 9.9,-3 9.9,-9.3c-0.1,-6.1 -4.1,-9.4 -9.9,-9.4z" class="st1"/>
  <path id="svg_21" d="m435.1,318.3l-23.2,-36.4c-1.4,-2.2 -3.4,-5.6 -4.3,-7.1c0,2.2 0.1,10.2 0.1,13.4l0,30.1l-8.5,0l0,-58.1l8.9,0l22.1,35.4c1.5,2.4 4,6.7 4.8,8.2c0,-2.2 -0.1,-10.5 -0.1,-13.7l0,-30l8.5,0l0,58.1l-8.3,0l0,0.1z" class="st1"/>
  <path id="svg_22" d="m76.6,361.1l-7.4,0l0,-27.3l7.4,0c7.3,0 13.3,4 13.3,13.7c0,9.6 -6.2,13.6 -13.3,13.6zm0,-23.3l-3.4,0l0,19.3l3.4,0c6.5,0 9.1,-3.9 9.1,-9.7s-2.6,-9.6 -9.1,-9.6z" class="st1"/>
  <path id="svg_23" d="m95.6,361.1l0,-27.3l17.6,0l0,4l-13.5,0l0,6.7l7.8,0l0,4l-7.8,0l0,8.6l14.1,0l0,4l-18.2,0z" class="st1"/>
  <path id="svg_24" d="m127.2,361.6c-4,0 -7.4,-1.7 -9.7,-4.4l2.9,-2.8c1.8,2 4.5,3.2 7.1,3.2c3.8,0 5.7,-1.3 5.7,-4c0,-2.1 -1.6,-3.2 -6.2,-4.5c-5.8,-1.7 -8.5,-3.2 -8.5,-8c0,-4.7 4,-7.6 9,-7.6c3.7,0 6.5,1.4 8.9,3.7l-2.9,2.9c-1.7,-1.8 -3.7,-2.6 -6.4,-2.6c-3.2,0 -4.6,1.6 -4.6,3.4c0,1.9 1.2,2.8 6,4.3c5.4,1.6 8.7,3.4 8.7,8.2c0.1,4.8 -3,8.2 -10,8.2z" class="st1"/>
  <path id="svg_25" d="m172.9,361.1l-7.8,-14l-5.1,6.1l0,7.9l-4,0l0,-27.3l4,0l0,9.4c0,1 0,4 -0.1,4.8c0.5,-0.7 2.3,-3 3.2,-4.1l8.1,-10.1l4.6,0l-8,9.9l9.8,17.4l-4.7,0z" class="st1"/>
  <path id="svg_26" d="m197.5,350l5.6,11.2l-4.7,0l-5.4,-10.8l-6.2,0l0,10.8l-4,0l0,-27.3l12,0c4.8,0 8.8,2.5 8.8,8.2c-0.1,4.3 -2.4,6.9 -6.1,7.9zm-2.8,-12.3l-8,0l0,8.8l8,0c2.7,0 4.6,-1.4 4.6,-4.4c0,-2.8 -1.8,-4.4 -4.6,-4.4z" class="st1"/>
  <path id="svg_27" d="m209.8,361.1l0,-27.3l17.6,0l0,4l-13.5,0l0,6.7l7.8,0l0,4l-7.8,0l0,8.6l14.1,0l0,4l-18.2,0z" class="st1"/>
  <path id="svg_28" d="m234,361.1l0,-27.3l4.1,0l0,27.3l-4.1,0z" class="st1"/>
  <path id="svg_29" d="m253.5,361.6c-4,0 -7.4,-1.7 -9.7,-4.4l2.9,-2.8c1.8,2 4.5,3.2 7.1,3.2c3.8,0 5.7,-1.3 5.7,-4c0,-2.1 -1.6,-3.2 -6.2,-4.5c-5.8,-1.7 -8.5,-3.2 -8.5,-8c0,-4.7 4,-7.6 9,-7.6c3.7,0 6.5,1.4 8.9,3.7l-2.9,2.9c-1.7,-1.8 -3.7,-2.6 -6.4,-2.6c-3.2,0 -4.6,1.6 -4.6,3.4c0,1.9 1.2,2.8 6,4.3c5.4,1.6 8.7,3.4 8.7,8.2c0.1,4.8 -3,8.2 -10,8.2z" class="st1"/>
  <path id="svg_30" d="m269.8,361.1l0,-27.3l17.6,0l0,4l-13.5,0l0,6.7l7.8,0l0,4l-7.8,0l0,8.6l14.1,0l0,4l-18.2,0z" class="st1"/>
  <path id="svg_31" d="m301.4,361.6c-4,0 -7.4,-1.7 -9.7,-4.4l2.9,-2.8c1.8,2 4.5,3.2 7.1,3.2c3.8,0 5.7,-1.3 5.7,-4c0,-2.1 -1.6,-3.2 -6.2,-4.5c-5.8,-1.7 -8.5,-3.2 -8.5,-8c0,-4.7 4,-7.6 9,-7.6c3.7,0 6.5,1.4 8.9,3.7l-2.9,2.9c-1.7,-1.8 -3.7,-2.6 -6.4,-2.6c-3.2,0 -4.6,1.6 -4.6,3.4c0,1.9 1.2,2.8 6,4.3c5.4,1.6 8.7,3.4 8.7,8.2c0.1,4.8 -3.1,8.2 -10,8.2z" class="st1"/>
  <path id="svg_32" d="m347,361.1l-7.8,-14l-5.1,6.1l0,7.9l-4,0l0,-27.3l4,0l0,9.4c0,1 0,4 -0.1,4.8c0.5,-0.7 2.3,-3 3.2,-4.1l8.1,-10.1l4.6,0l-8,9.9l9.8,17.4l-4.7,0z" class="st1"/>
  <path id="svg_33" d="m356.8,361.1l0,-27.3l4.1,0l0,23.3l13.6,0l0,4l-17.7,0z" class="st1"/>
  <path id="svg_34" d="m380,361.1l0,-27.3l17.6,0l0,4l-13.5,0l0,6.7l7.8,0l0,4l-7.8,0l0,8.6l14.1,0l0,4l-18.2,0z" class="st1"/>
  <path id="svg_35" d="m415.7,361.1l-4.3,0l-9.5,-27.3l4.4,0l5.7,17.4c0.5,1.6 1.3,4 1.5,5c0.2,-1 1,-3.4 1.5,-5l5.6,-17.4l4.4,0l-9.3,27.3z" class="st1"/>
  <path id="svg_36" d="m430.5,361.1l0,-27.3l17.6,0l0,4l-13.5,0l0,6.7l7.8,0l0,4l-7.8,0l0,8.6l14.1,0l0,4l-18.2,0z" class="st1"/>
  <g id="svg_37">
   <path id="svg_38" d="m164.5,171.4c-31.2,0 -60.7,9.6 -79.2,17.1l162.7,0c-21.2,-9 -42.4,-17.1 -83.5,-17.1z" class="st0"/>
   <path id="svg_39" d="m434.8,155.5l-163,0c20.9,8.8 42.1,16.7 82.6,16.7l1.4,0c31.3,0 60.9,-9.4 79,-16.7z" class="st0"/>
  </g>
  <path id="svg_40" d="m449.4,155.4c-16.5,7.7 -54.1,22.8 -94.9,22.5l-0.1,0c-44.7,0 -66.4,-9.3 -89.4,-19.1c-24.6,-10.5 -50.1,-21.4 -100.4,-21.4c-38.2,0 -73.1,11.6 -95,20.8l0,31.1c16.5,-8 54.1,-23.6 95,-23.6c44.6,0 66.3,9.3 89.3,19.1c24.6,10.5 50.1,21.4 100.5,21.4c0.5,0 0.9,0 1.4,0c37.7,0 72.2,-11 93.7,-19.9l0,-30.9l-0.1,0z" class="st2"/>
  <path id="svg_41" d="m69.5,85.4l0,66.5c2.8,-1.1 11.1,-4.2 14.2,-5.3l0,-47l93.8,0l0,32.3c5,0.2 9.7,0.5 14.2,0.9l0,-47.4l-122.2,0z" class="st3"/>
  <path id="svg_42" d="m198.3,27.7l0,105.8c5,0.6 9.7,1.3 14.2,2.1l0,-93.7l93.8,0l0,108l14.2,0l0,-122.2l-122.2,0z" class="st4"/>
  <polygon id="svg_43" points="327.20001220703125,85.39999389648438 327.20001220703125,149.89999389648438 341.29998779296875,149.89999389648438 341.29998779296875,99.60000610351562 435.20001220703125,99.60000610351562 435.20001220703125,149.89999389648438 449.4000244140625,149.89999389648438 449.4000244140625,85.39999389648438 " class="st3"/>
 </g>
</svg>